<svg xmlns="http://www.w3.org/2000/svg" width="24" height="24" viewBox="0 0 24 24" fill="none" class="injected-svg" data-src="https://cdn.hugeicons.com/icons/notification-01-stroke-standard.svg" xmlns:xlink="http://www.w3.org/1999/xlink" role="img" color="#9b9b9b">
<path d="M15 19C15 20.6569 13.6373 22 11.9759 22C10.3145 22 9 20.6569 9 19" stroke="#9b9b9b" stroke-width="2" stroke-linejoin="round"></path>
<path d="M5 12V14L3 16.5V18C3 18.5523 3.44772 19 4 19H20C20.5523 19 21 18.5523 21 18V16.5L19 14V12C19 8.13401 15.866 5 12 5C8.13401 5 5 8.13401 5 12Z" stroke="#9b9b9b" stroke-width="2" stroke-linecap="round" stroke-linejoin="round"></path>
<path d="M10.4387 3.31623L11 5H13L13.5613 3.31623C13.7771 2.6687 13.2951 2 12.6126 2H11.3874C10.7049 2 10.2229 2.6687 10.4387 3.31623Z" stroke="#9b9b9b" stroke-width="2" stroke-linecap="round" stroke-linejoin="round"></path>
</svg>